<svg width="180" height="180" viewBox="0 0 180 180" fill="none" xmlns="http://www.w3.org/2000/svg">

	<!-- Cross shape -->
	<path d="
    M70 10
    H110
    C118 10 125 17 125 25
    V55
    H155
    C163 55 170 62 170 70
    V110
    C170 118 163 125 155 125
    H125
    V155
    C125 163 118 170 110 170
    H70
    C62 170 55 163 55 155
    V125
    H25
    C17 125 10 118 10 110
    V70
    C10 62 17 55 25 55
    H55
    V25
    C55 17 62 10 70 10
  "
	fill="none"
	stroke="#0288D1"
	stroke-width="12"
	stroke-linejoin="round"/>

	<!-- Simple medical pill icon inside -->
	<g transform="translate(75,80)">
		<rect x="0" y="8" width="28" height="14" rx="4" fill="#0288D1"/>
		<rect x="14" y="4" width="28" height="14" rx="4" fill="#00BFA5"/>
	</g>

</svg>
